
        <svg xmlns="http://www.w3.org/2000/svg" xmlns:xlink="http://www.w3.org/1999/xlink" version="1.1" width="3192" 
        height="3154.96318798359" viewBox="0 0 3192 3154.96318798359">
			
			<g transform="scale(9.6) translate(10, 10)">
				<defs id="SvgjsDefs50084"><linearGradient id="SvgjsLinearGradient50091"><stop id="SvgjsStop50092" stop-color="#8f5e25" offset="0"></stop><stop id="SvgjsStop50093" stop-color="#fbf4a1" offset="0.5"></stop><stop id="SvgjsStop50094" stop-color="#8f5e25" offset="1"></stop></linearGradient><linearGradient id="SvgjsLinearGradient50095"><stop id="SvgjsStop50096" stop-color="#8f5e25" offset="0"></stop><stop id="SvgjsStop50097" stop-color="#fbf4a1" offset="0.5"></stop><stop id="SvgjsStop50098" stop-color="#8f5e25" offset="1"></stop></linearGradient><linearGradient id="SvgjsLinearGradient50099"><stop id="SvgjsStop50100" stop-color="#8f5e25" offset="0"></stop><stop id="SvgjsStop50101" stop-color="#fbf4a1" offset="0.5"></stop><stop id="SvgjsStop50102" stop-color="#8f5e25" offset="1"></stop></linearGradient></defs><g id="SvgjsG50085" featureKey="rootContainer" transform="matrix(2.962557282918362,0,0,2.962557282918362,-0.11114361282025892,0.08493720129761974)" fill="url(#SvgjsLinearGradient50091)"><path xmlns="http://www.w3.org/2000/svg" d="M104.6 41.3a52.2 52.2 0 0 0-3.5-11.2A51.1 51.1 0 0 0 44.3 1a49.6 49.6 0 0 0-5.7 1.5 49.1 49.1 0 0 0-7.9 2.7A51.6 51.6 0 0 0 6.3 77a53.7 53.7 0 0 0 4.1 6.4 57 57 0 0 0 5 5.7 51.7 51.7 0 0 0 55.3 11.5l3.3-1.4 3-1.5a50.9 50.9 0 0 0 5.8-3.8l2.7-2.1 1.2-1.1 1.1-.9 2-1.8.7-.6.6-.7 1.8-2a48.5 48.5 0 0 0 5.9-8.3 50.4 50.4 0 0 0 5.6-14.7 51.6 51.6 0 0 0 .2-20.4zM87.1 88.6l-1.2 1.1-1.2 1.1-2.6 2.1a49.5 49.5 0 0 1-5.7 3.6l-3 1.5-3.2 1.3-4.9 1.6h-.5a50.9 50.9 0 0 1-20.3.1 51.8 51.8 0 0 1-11.1-3.6A50.5 50.5 0 0 1 22.9 91a52 52 0 0 1-9.1-9.4 50.3 50.3 0 0 1-3.7-5.7c-.6-1-1.1-2-1.6-3.1s-1-2.1-1.3-3.2a50.6 50.6 0 0 1 8.6-50.8l.8-.8.5-.6.6-.6 1.2-1.1 2.4-2.1A50.5 50.5 0 0 1 62.4 3.2a48.5 48.5 0 0 1 14.7 5.2 47 47 0 0 1 8.3 5.8l2 1.8.7.6.6.7 1.8 2a49.7 49.7 0 0 1 11.3 22.9 50.8 50.8 0 0 1-.1 20.2 51.6 51.6 0 0 1-3.6 11 50.2 50.2 0 0 1-6.6 10.5l-2.1 2.4zm-44.9 13a50.1 50.1 0 0 1-13.7-5 51.8 51.8 0 0 1-6.2-4 55.2 55.2 0 0 1-5.5-4.8 49.9 49.9 0 0 1-11-53.2c.4-1.1.9-2.1 1.3-3.1l.6-1.3a50.2 50.2 0 0 0-3.4 11 51.3 51.3 0 0 0 2.4 28.5c.4 1.1.9 2.2 1.4 3.2s1 2.1 1.6 3.1a50.6 50.6 0 0 0 3.7 5.8 51.5 51.5 0 0 0 9.2 9.5 50.9 50.9 0 0 0 10.7 6.5 51 51 0 0 0 28.7 3.9 50.3 50.3 0 0 1-19.8-.1zm61.9-39.9a50.2 50.2 0 0 1-5.5 14.7 48.4 48.4 0 0 1-5.8 8.3l-1.8 2-.6.7-.7.6-1.9 1.7h.2l2.3-2.4 2.1-2.5A51.3 51.3 0 0 0 98.9 74a51.4 51.4 0 0 0 3.2-31.6 49.6 49.6 0 0 0-2.5-8.2 49.4 49.4 0 0 0-3.1-6.5 48.7 48.7 0 0 0-5.9-8.3l-1.8-2-.6-.7-.7-.6-2-1.8A49.9 49.9 0 0 0 77.3 8a49.3 49.3 0 0 0-6.5-3.2 49.8 49.8 0 0 0-8.2-2.6A52.2 52.2 0 0 0 49.9 1a50.8 50.8 0 0 1 22.7 3.2l3.2 1.3 3.1 1.6a50.1 50.1 0 0 1 5.7 3.7l2.6 2.1 1.2 1.1 1.2 1.1 2.3 2.3 2.1 2.4a50.4 50.4 0 0 1 6.5 10.5 51.6 51.6 0 0 1 3.6 11 51.1 51.1 0 0 1 0 20.3z"></path></g><g id="SvgjsG50086" featureKey="symbolFeature-0" transform="matrix(1.0572688646047805,0,0,1.0572688646047805,108.88546227079044,85.4669553065303)" fill="url(#SvgjsLinearGradient50095)"><g xmlns="http://www.w3.org/2000/svg"><path d="M29,28.9c0.2,0.2,0.4,0.3,0.6,0.3c0.2,0,0.5-0.1,0.6-0.3l3.8-3.8l-3.8-3.8c-0.4-0.4-0.9-0.4-1.3,0c-0.4,0.4-0.4,0.9,0,1.3   l2.5,2.5L29,27.6C28.7,28,28.7,28.6,29,28.9z"></path><path d="M35.3,28.1c-0.5,0-0.9,0.4-0.9,0.9c0,0.5,0.4,0.9,0.9,0.9h4.8c0.5,0,0.9-0.4,0.9-0.9c0-0.5-0.4-0.9-0.9-0.9H35.3z"></path><path d="M74.2,31.6c0.8-0.2,1.8-0.3,2.7-0.3c1.4,0,2.6,0.3,3.1,0.7c1.4,1.1,2,2.1,2.1,2.1l0.3,0.5l0.2-0.1V55c0,1.5-0.5,2.9-1.4,4   l0.6,2.4c1.8-1.6,2.9-3.8,2.9-6.4v-21l2.3-0.6l-0.8-1c-0.1-0.1-0.6-0.9-1.5-1.9v-9.2c0-4.7-3.8-8.5-8.5-8.5H29.8   c-4.7,0-8.5,3.8-8.5,8.5V35c-0.8,0.2-1.5,0.5-2.3,0.8l-2.2-3.5L12.1,35l1.9,3.6c-1.4,1.1-2.6,2.3-3.7,3.7l-3.6-1.9L4,45.1l3.5,2.2   c-0.7,1.7-1.1,3.4-1.4,5.1L2,52.5V58l4.1,0.1c0.2,1.7,0.7,3.5,1.4,5.1L4,65.4l2.7,4.7l3.6-1.9c1.1,1.4,2.3,2.6,3.7,3.7l-1.9,3.6   l4.7,2.7l2.2-3.5c1.7,0.7,3.4,1.1,5.1,1.4l0.1,4.1h5.5l0.1-4.1c1.7-0.2,3.5-0.7,5.1-1.4l2.2,3.5l4.7-2.7L40,71.9   c1.4-1.1,2.6-2.3,3.7-3.7l3.6,1.9l2.7-4.7l-3-1.9h22.9l-0.5-2.1H29.8c-3.5,0-6.4-2.9-6.4-6.4V21.3c0-3.5,2.9-6.4,6.4-6.4h46.4   c3.5,0,6.4,2.9,6.4,6.4v6.9c-0.6-0.6-1.2-1.2-1.8-1.6C78.7,25,75.6,24,72.7,24c-1,0-1.9,0.1-2.7,0.3l-11.5,2.9L56.7,26l-5.6,1.4   L54.3,40l5.6-1.4l1-1.9l3.9-1l11,45.2l9.1-2.3L72.8,33.3L74.2,31.6z M11.5,59.1c-1-3.9-0.5-8.1,1.7-11.8c1.9-3.3,4.8-5.6,8.1-6.9   v10.4c-0.2,0.3-0.4,0.6-0.6,0.9c-0.7,1.2-1,2.4-1,3.7c0,1.5-0.8,2.9-2.1,3.7l-2.7,1.6C13.6,61.3,11.9,60.6,11.5,59.1z M38.2,63.5   c0.8,0.9,0.9,2.3-0.1,3.2c-5,4.8-12.8,6-19.1,2.3c-1.1-0.7-2.2-1.4-3.1-2.3c-1.1-1.1-0.9-2.9,0.4-3.7l2.7-1.6   c1.3-0.8,2.9-0.7,4.2,0c0,0,0,0,0,0c0.7,0.4,1.5,0.7,2.2,0.8c1.2,0.7,2.7,1.1,4.2,1.1H38.2z M59.7,35.2l-1,1.9l-3.2,0.8l-2.3-9.2   l3.2-0.8l1.8,1.2L70.4,26c0.7-0.2,1.5-0.3,2.3-0.3c2.5,0,5.3,0.9,7,2.3c1.5,1.2,3.3,3.3,4.3,4.5l-0.9,0.2c-0.4-0.5-1.1-1.3-2.1-2.1   c-1.1-0.9-2.9-1.1-4.2-1.1c-1.2,0-2.4,0.1-3.4,0.4L73.2,30l-1.7,2.2L59.7,35.2z"></path><rect x="56.6" y="31.6" transform="matrix(-0.2466 -0.9691 0.9691 -0.2466 42.9199 97.4263)" width="5.5" height="0.9"></rect></g></g><g id="SvgjsG50087" featureKey="nameFeature-0" transform="matrix(0.5860509221162863,0,0,0.5860509221162863,55.313206205847884,186.35269425500906)" fill="url(#SvgjsLinearGradient50099)"><path d="M9.043 8.515999999999998 l6.3086 0 l7.8711 0 l0 6.2891 l-7.8711 0 l0 25.195 l-6.3086 0 l0 -25.195 l-7.8711 0 l0 -6.2891 l7.8711 0 z M41.920234375 8.359000000000002 c4.375 0 8.125 1.5625 11.25 4.6875 s4.6875 6.875 4.6875 11.25 s-1.5625 8.125 -4.6875 11.23 s-6.875 4.668 -11.25 4.668 s-8.125 -1.5625 -11.23 -4.668 s-4.668 -6.8555 -4.668 -11.23 s1.5625 -8.125 4.668 -11.25 s6.8555 -4.6875 11.23 -4.6875 z M41.920234375 14.707 c-2.6367 0 -4.8828 0.9375 -6.7383 2.8125 s-2.793 4.1211 -2.793 6.7383 c0 2.6367 0.9375 4.8828 2.793 6.7383 s4.1016 2.793 6.7383 2.793 c2.6172 0 4.8633 -0.9375 6.7383 -2.793 s2.8125 -4.1016 2.8125 -6.7383 c0 -2.6172 -0.9375 -4.8633 -2.8125 -6.7383 s-4.1211 -2.8125 -6.7383 -2.8125 z M68.8594125 8.613 l-0.019531 0 c4.2188 0 7.7539 3.4961 7.832 7.6758 c0 0.83984 -0.29297 1.8164 -0.54688 2.5977 c3.5938 1.5625 6.8164 5.1172 6.8164 10.098 c0 3.0078 -1.0742 5.5859 -3.2227 7.7344 s-4.7266 3.2227 -7.7344 3.2227 l-10.957 0 l0 -31.328 l7.832 0 z M67.2773125 18.633 l1.5625 0 c1.0547 0 1.8945 -0.80078 1.8945 -1.8359 c0 -1.0547 -0.83984 -1.9336 -1.8945 -1.9336 l-1.5625 0 l0 3.7695 z M71.9653125 33.6719 c2.5781 0 4.707 -2.1094 4.707 -4.668 c0 -1.3086 -0.46875 -2.4219 -1.3867 -3.3398 s-2.0313 -0.97656 -3.3203 -0.97656 l-4.6875 0 l0 8.9844 l4.6875 0 z M86.150390625 40 l0 -31.484 l6.3086 0 l0 31.484 l-6.3086 0 z M107.1331875 29.59 l5.5664 0 l-2.7734 -6.543 z M104.5546875 35.1562 l-0.039063 -0.019531 c-0.70313 1.6016 -1.4258 3.1836 -2.1484 4.7852 l-6.7773 0 l14.277 -31.992 l14.316 31.992 l-6.7969 0 c-0.70313 -1.582 -1.4063 -3.1836 -2.1094 -4.7656 l-10.723 0 z M135.185578125 33.7891 l-0.019531 -0.039063 c1.7383 0 3.1836 -1.4453 3.1836 -3.1836 c0 -1.3477 -0.52734 -2.207 -1.6016 -2.5977 c-2.2656 -0.83984 -1.7188 -0.64453 -3.9258 -1.4063 c-2.3242 -0.80078 -4.4727 -2.3828 -5.918 -4.3555 c-0.85938 -1.1719 -1.2891 -2.6172 -1.2891 -4.3555 c0 -2.6172 0.9375 -4.8633 2.8125 -6.7383 s4.1211 -2.8125 6.7578 -2.8125 c2.6172 0 4.8633 0.9375 6.7383 2.8125 s2.8125 4.1211 2.8125 6.7383 l-6.3477 0 c0 -1.7188 -1.4453 -3.1641 -3.1641 -3.1641 c-1.7383 0 -3.1836 1.4453 -3.1836 3.1836 c0 1.1328 0.44922 1.9922 1.3672 2.5781 c1.875 1.2109 1.6602 0.97656 3.9063 1.6406 c2.4219 0.70313 4.6094 2.207 6.1133 4.1406 c0.87891 1.1328 1.3281 2.5977 1.3281 4.375 c0 2.6367 -0.9375 4.8828 -2.8125 6.7578 s-4.1211 2.8125 -6.7383 2.8125 c-2.6367 0 -4.8828 -0.9375 -6.7578 -2.8125 s-2.8125 -4.1211 -2.8125 -6.7578 l6.3672 0 c0 1.7578 1.4258 3.1836 3.1836 3.1836 z M176.174140625 8.359000000000002 l0.019531 0.058594 c2.1875 0 4.2383 0.41016 6.1719 1.25 s3.6328 1.9727 5.0977 3.3984 l-4.4922 4.4922 c-1.8945 -1.875 -4.1406 -2.8125 -6.7383 -2.8125 c-2.6367 0 -4.8828 0.9375 -6.7383 2.8125 s-2.793 4.1211 -2.793 6.7383 c0 2.6367 0.9375 4.8828 2.793 6.7383 s4.1016 2.793 6.7383 2.793 c2.0703 0 3.9258 -0.58594 5.5469 -1.7773 s2.7734 -2.7148 3.4375 -4.5703 l-9.0039 0 l0 -6.3477 l9.0039 0 l3.6914 0 l2.8906 0 c0.21484 0.99609 0.3125 2.0508 0.3125 3.1641 c0 4.375 -1.5625 8.125 -4.6875 11.23 s-6.875 4.668 -11.25 4.668 s-8.125 -1.5625 -11.23 -4.668 s-4.668 -6.8555 -4.668 -11.23 s1.5625 -8.125 4.668 -11.25 s6.8555 -4.6875 11.23 -4.6875 z M195.26171875 8.515999999999998 l6.3086 0 l0 25.176 l12.578 0 l0 6.3086 l-18.887 0 l0 -31.484 z M228.041390625 29.59 l5.5664 0 l-2.7734 -6.543 z M225.462890625 35.1562 l-0.039063 -0.019531 c-0.70313 1.6016 -1.4258 3.1836 -2.1484 4.7852 l-6.7773 0 l14.277 -31.992 l14.316 31.992 l-6.7969 0 c-0.70313 -1.582 -1.4063 -3.1836 -2.1094 -4.7656 l-10.723 0 z M264.76528125 8.515999999999998 l6.3477 0 l0 12.656 l0 6.3281 c0 3.4961 -1.2305 6.4844 -3.7109 8.9648 s-5.4688 3.7109 -8.9453 3.7109 c-3.4961 0 -6.4844 -1.2305 -8.9648 -3.7109 s-3.7109 -5.4688 -3.7109 -8.9648 l0 -6.3281 l0 -12.656 l6.3477 0 l0 12.656 l0 5.6641 l0 0.64453 c0 1.7383 0.625 3.2227 1.8555 4.4531 s2.7148 1.8555 4.4531 1.8555 c1.7188 0 3.2031 -0.625 4.4531 -1.8555 s1.875 -2.7148 1.875 -4.4531 l0 -0.64453 l0 -5.6641 l0 -12.656 z M284.419953125 33.7891 l-0.019531 -0.039063 c1.7383 0 3.1836 -1.4453 3.1836 -3.1836 c0 -1.3477 -0.52734 -2.207 -1.6016 -2.5977 c-2.2656 -0.83984 -1.7188 -0.64453 -3.9258 -1.4063 c-2.3242 -0.80078 -4.4727 -2.3828 -5.918 -4.3555 c-0.85938 -1.1719 -1.2891 -2.6172 -1.2891 -4.3555 c0 -2.6172 0.9375 -4.8633 2.8125 -6.7383 s4.1211 -2.8125 6.7578 -2.8125 c2.6172 0 4.8633 0.9375 6.7383 2.8125 s2.8125 4.1211 2.8125 6.7383 l-6.3477 0 c0 -1.7188 -1.4453 -3.1641 -3.1641 -3.1641 c-1.7383 0 -3.1836 1.4453 -3.1836 3.1836 c0 1.1328 0.44922 1.9922 1.3672 2.5781 c1.875 1.2109 1.6602 0.97656 3.9063 1.6406 c2.4219 0.70313 4.6094 2.207 6.1133 4.1406 c0.87891 1.1328 1.3281 2.5977 1.3281 4.375 c0 2.6367 -0.9375 4.8828 -2.8125 6.7578 s-4.1211 2.8125 -6.7383 2.8125 c-2.6367 0 -4.8828 -0.9375 -6.7578 -2.8125 s-2.8125 -4.1211 -2.8125 -6.7578 l6.3672 0 c0 1.7578 1.4258 3.1836 3.1836 3.1836 z M297.7265625 8.515999999999998 l18.887 0 l0 6.2891 l-12.578 0 l0 6.3086 l9.4336 0 l0 6.2891 l-9.4336 0 l0 6.2891 l12.578 0 l0 6.3086 l-12.578 0 l-6.3086 0 l0 -31.484 z M320.388671875 40 l-0.019531 -31.523 l10.234 0 c3.0273 0 6.0156 1.0547 8.1836 3.2227 s3.0469 4.1992 3.0469 7.2266 l0 0.97656 c0 2.3438 -0.66406 4.0625 -1.9922 5.9375 s-2.4414 2.4219 -4.5117 3.2031 l7.1094 10.957 l-7.6953 0 l-8.0469 -12.305 l0 12.305 l-6.3086 0 z M326.677771875 23.633 l4.5117 0.019531 c1.3086 0 1.9727 -0.33203 2.8906 -1.25 s1.25 -1.9727 1.25 -3.2813 c0 -1.2891 -0.33203 -2.1484 -1.25 -3.0859 s-2.5586 -1.2695 -3.8672 -1.2695 l-3.5352 0 l0 8.8672 z"></path></g>
			</g>
		</svg>
	